<?xml version="1.0" encoding="UTF-8" standalone="no"?>
<!DOCTYPE svg PUBLIC "-//W3C//DTD SVG 1.1//EN"
 "http://www.w3.org/Graphics/SVG/1.1/DTD/svg11.dtd">
<!-- Generated by graphviz version 2.40.1 (20161225.0304)
 -->
<!-- Title: controllers_diagram Pages: 1 -->
<svg width="1222pt" height="1112pt"
 viewBox="0.00 0.00 1221.62 1112.00" xmlns="http://www.w3.org/2000/svg" xmlns:xlink="http://www.w3.org/1999/xlink">
<g id="graph0" class="graph" transform="scale(1 1) rotate(0) translate(4 1108)">
<title>controllers_diagram</title>
<polygon fill="transparent" stroke="transparent" points="-4,4 -4,-1108 1217.6211,-1108 1217.6211,4 -4,4"/>
<!-- _diagram_info -->
<g id="node1" class="node">
<title>_diagram_info</title>
<text text-anchor="start" x="336" y="-140.6" font-family="Times,serif" font-size="13.00" fill="#000000">Controllers diagram</text>
<text text-anchor="start" x="336" y="-127.6" font-family="Times,serif" font-size="13.00" fill="#000000">Date: Jul 02 2018 &#45; 21:08</text>
<text text-anchor="start" x="336" y="-114.6" font-family="Times,serif" font-size="13.00" fill="#000000">Migration version: 20180702221650</text>
<text text-anchor="start" x="336" y="-101.6" font-family="Times,serif" font-size="13.00" fill="#000000">Generated by RailRoady 1.5.3</text>
<text text-anchor="start" x="336" y="-88.6" font-family="Times,serif" font-size="13.00" fill="#000000">http://railroady.prestonlee.com</text>
</g>
<!-- ApplicationController -->
<g id="node2" class="node">
<title>ApplicationController</title>
<path fill="none" stroke="#000000" d="M551.5956,-455.9866C551.5956,-455.9866 667.2372,-455.9866 667.2372,-455.9866 673.2372,-455.9866 679.2372,-461.9866 679.2372,-467.9866 679.2372,-467.9866 679.2372,-535.9866 679.2372,-535.9866 679.2372,-541.9866 673.2372,-547.9866 667.2372,-547.9866 667.2372,-547.9866 551.5956,-547.9866 551.5956,-547.9866 545.5956,-547.9866 539.5956,-541.9866 539.5956,-535.9866 539.5956,-535.9866 539.5956,-467.9866 539.5956,-467.9866 539.5956,-461.9866 545.5956,-455.9866 551.5956,-455.9866"/>
<text text-anchor="middle" x="609.4164" y="-532.7866" font-family="Times,serif" font-size="14.00" fill="#000000">ApplicationController</text>
<polyline fill="none" stroke="#000000" points="539.5956,-525.9866 679.2372,-525.9866 "/>
<polyline fill="none" stroke="#000000" points="539.5956,-501.9866 679.2372,-501.9866 "/>
<polyline fill="none" stroke="#000000" points="539.5956,-477.9866 679.2372,-477.9866 "/>
<text text-anchor="start" x="547.5956" y="-462.7866" font-family="Times,serif" font-size="14.00" fill="#000000">_layout</text>
</g>
<!-- NotesController -->
<g id="node3" class="node">
<title>NotesController</title>
<path fill="none" stroke="#000000" d="M769.93,-131.7573C769.93,-131.7573 852.137,-131.7573 852.137,-131.7573 858.137,-131.7573 864.137,-137.7573 864.137,-143.7573 864.137,-143.7573 864.137,-321.7573 864.137,-321.7573 864.137,-327.7573 858.137,-333.7573 852.137,-333.7573 852.137,-333.7573 769.93,-333.7573 769.93,-333.7573 763.93,-333.7573 757.93,-327.7573 757.93,-321.7573 757.93,-321.7573 757.93,-143.7573 757.93,-143.7573 757.93,-137.7573 763.93,-131.7573 769.93,-131.7573"/>
<text text-anchor="middle" x="811.0335" y="-318.5573" font-family="Times,serif" font-size="14.00" fill="#000000">NotesController</text>
<polyline fill="none" stroke="#000000" points="757.93,-311.7573 864.137,-311.7573 "/>
<text text-anchor="start" x="765.93" y="-296.5573" font-family="Times,serif" font-size="14.00" fill="#000000">create</text>
<text text-anchor="start" x="765.93" y="-282.5573" font-family="Times,serif" font-size="14.00" fill="#000000">destroy</text>
<text text-anchor="start" x="765.93" y="-268.5573" font-family="Times,serif" font-size="14.00" fill="#000000">edit</text>
<text text-anchor="start" x="765.93" y="-254.5573" font-family="Times,serif" font-size="14.00" fill="#000000">index</text>
<text text-anchor="start" x="765.93" y="-240.5573" font-family="Times,serif" font-size="14.00" fill="#000000">new</text>
<text text-anchor="start" x="765.93" y="-226.5573" font-family="Times,serif" font-size="14.00" fill="#000000">show</text>
<text text-anchor="start" x="765.93" y="-212.5573" font-family="Times,serif" font-size="14.00" fill="#000000">update</text>
<polyline fill="none" stroke="#000000" points="757.93,-205.7573 864.137,-205.7573 "/>
<polyline fill="none" stroke="#000000" points="757.93,-181.7573 864.137,-181.7573 "/>
<text text-anchor="start" x="765.93" y="-166.5573" font-family="Times,serif" font-size="14.00" fill="#000000">_layout</text>
<text text-anchor="start" x="765.93" y="-152.5573" font-family="Times,serif" font-size="14.00" fill="#000000">find_note</text>
<text text-anchor="start" x="765.93" y="-138.5573" font-family="Times,serif" font-size="14.00" fill="#000000">note_params</text>
</g>
<!-- ApplicationController&#45;&gt;NotesController -->
<g id="edge1" class="edge">
<title>ApplicationController&#45;&gt;NotesController</title>
<path fill="none" stroke="#000000" d="M644.0756,-455.7044C675.3752,-413.9085 721.9071,-351.7722 757.9024,-303.7059"/>
</g>
<!-- WelcomeController -->
<g id="node4" class="node">
<title>WelcomeController</title>
<path fill="none" stroke="#000000" d="M437.521,-183.4937C437.521,-183.4937 539.5864,-183.4937 539.5864,-183.4937 545.5864,-183.4937 551.5864,-189.4937 551.5864,-195.4937 551.5864,-195.4937 551.5864,-261.4937 551.5864,-261.4937 551.5864,-267.4937 545.5864,-273.4937 539.5864,-273.4937 539.5864,-273.4937 437.521,-273.4937 437.521,-273.4937 431.521,-273.4937 425.521,-267.4937 425.521,-261.4937 425.521,-261.4937 425.521,-195.4937 425.521,-195.4937 425.521,-189.4937 431.521,-183.4937 437.521,-183.4937"/>
<text text-anchor="middle" x="488.5537" y="-258.2937" font-family="Times,serif" font-size="14.00" fill="#000000">WelcomeController</text>
<polyline fill="none" stroke="#000000" points="425.521,-251.4937 551.5864,-251.4937 "/>
<text text-anchor="start" x="433.521" y="-236.2937" font-family="Times,serif" font-size="14.00" fill="#000000">index</text>
<polyline fill="none" stroke="#000000" points="425.521,-229.4937 551.5864,-229.4937 "/>
<polyline fill="none" stroke="#000000" points="425.521,-205.4937 551.5864,-205.4937 "/>
<text text-anchor="start" x="433.521" y="-190.2937" font-family="Times,serif" font-size="14.00" fill="#000000">_layout</text>
</g>
<!-- ApplicationController&#45;&gt;WelcomeController -->
<g id="edge2" class="edge">
<title>ApplicationController&#45;&gt;WelcomeController</title>
<path fill="none" stroke="#000000" d="M589.0503,-455.9015C566.6477,-405.2079 530.8751,-324.2603 508.6004,-273.8563"/>
</g>
<!-- DeviseController -->
<g id="node16" class="node">
<title>DeviseController</title>
<path fill="none" stroke="#000000" d="M296.2313,-343.4973C296.2313,-343.4973 467.1073,-343.4973 467.1073,-343.4973 473.1073,-343.4973 479.1073,-349.4973 479.1073,-355.4973 479.1073,-355.4973 479.1073,-699.4973 479.1073,-699.4973 479.1073,-705.4973 473.1073,-711.4973 467.1073,-711.4973 467.1073,-711.4973 296.2313,-711.4973 296.2313,-711.4973 290.2313,-711.4973 284.2313,-705.4973 284.2313,-699.4973 284.2313,-699.4973 284.2313,-355.4973 284.2313,-355.4973 284.2313,-349.4973 290.2313,-343.4973 296.2313,-343.4973"/>
<text text-anchor="middle" x="381.6693" y="-696.2973" font-family="Times,serif" font-size="14.00" fill="#000000">DeviseController</text>
<polyline fill="none" stroke="#000000" points="284.2313,-689.4973 479.1073,-689.4973 "/>
<text text-anchor="start" x="292.2313" y="-674.2973" font-family="Times,serif" font-size="14.00" fill="#000000">_prefixes</text>
<polyline fill="none" stroke="#000000" points="284.2313,-667.4973 479.1073,-667.4973 "/>
<text text-anchor="start" x="292.2313" y="-652.2973" font-family="Times,serif" font-size="14.00" fill="#000000">unknown_action!</text>
<text text-anchor="start" x="292.2313" y="-638.2973" font-family="Times,serif" font-size="14.00" fill="#000000">clean_up_passwords</text>
<text text-anchor="start" x="292.2313" y="-624.2973" font-family="Times,serif" font-size="14.00" fill="#000000">devise_i18n_options</text>
<text text-anchor="start" x="292.2313" y="-610.2973" font-family="Times,serif" font-size="14.00" fill="#000000">devise_mapping</text>
<text text-anchor="start" x="292.2313" y="-596.2973" font-family="Times,serif" font-size="14.00" fill="#000000">find_message</text>
<text text-anchor="start" x="292.2313" y="-582.2973" font-family="Times,serif" font-size="14.00" fill="#000000">navigational_formats</text>
<text text-anchor="start" x="292.2313" y="-568.2973" font-family="Times,serif" font-size="14.00" fill="#000000">require_no_authentication</text>
<text text-anchor="start" x="292.2313" y="-554.2973" font-family="Times,serif" font-size="14.00" fill="#000000">resource</text>
<text text-anchor="start" x="292.2313" y="-540.2973" font-family="Times,serif" font-size="14.00" fill="#000000">resource=</text>
<text text-anchor="start" x="292.2313" y="-526.2973" font-family="Times,serif" font-size="14.00" fill="#000000">resource_class</text>
<text text-anchor="start" x="292.2313" y="-512.2973" font-family="Times,serif" font-size="14.00" fill="#000000">resource_name</text>
<text text-anchor="start" x="292.2313" y="-498.2973" font-family="Times,serif" font-size="14.00" fill="#000000">resource_params</text>
<text text-anchor="start" x="292.2313" y="-484.2973" font-family="Times,serif" font-size="14.00" fill="#000000">respond_with_navigational</text>
<text text-anchor="start" x="292.2313" y="-470.2973" font-family="Times,serif" font-size="14.00" fill="#000000">scope_name</text>
<text text-anchor="start" x="292.2313" y="-456.2973" font-family="Times,serif" font-size="14.00" fill="#000000">set_flash_message</text>
<text text-anchor="start" x="292.2313" y="-442.2973" font-family="Times,serif" font-size="14.00" fill="#000000">set_flash_message!</text>
<text text-anchor="start" x="292.2313" y="-428.2973" font-family="Times,serif" font-size="14.00" fill="#000000">set_minimum_password_length</text>
<text text-anchor="start" x="292.2313" y="-414.2973" font-family="Times,serif" font-size="14.00" fill="#000000">signed_in_resource</text>
<text text-anchor="start" x="292.2313" y="-400.2973" font-family="Times,serif" font-size="14.00" fill="#000000">successfully_sent?</text>
<text text-anchor="start" x="292.2313" y="-386.2973" font-family="Times,serif" font-size="14.00" fill="#000000">translation_scope</text>
<text text-anchor="start" x="292.2313" y="-372.2973" font-family="Times,serif" font-size="14.00" fill="#000000">assert_is_devise_resource!</text>
<polyline fill="none" stroke="#000000" points="284.2313,-365.4973 479.1073,-365.4973 "/>
<text text-anchor="start" x="292.2313" y="-350.2973" font-family="Times,serif" font-size="14.00" fill="#000000">_layout</text>
</g>
<!-- ApplicationController&#45;&gt;DeviseController -->
<g id="edge9" class="edge">
<title>ApplicationController&#45;&gt;DeviseController</title>
<path fill="none" stroke="#000000" d="M539.537,-509.814C520.5773,-511.9377 499.6949,-514.2768 479.4994,-516.539"/>
</g>
<!-- ActiveStorage::DirectUploadsController -->
<g id="node5" class="node">
<title>ActiveStorage::DirectUploadsController</title>
<path fill="none" stroke="#000000" d="M955,-82.5C955,-82.5 1174.0488,-82.5 1174.0488,-82.5 1180.0488,-82.5 1186.0488,-88.5 1186.0488,-94.5 1186.0488,-94.5 1186.0488,-188.5 1186.0488,-188.5 1186.0488,-194.5 1180.0488,-200.5 1174.0488,-200.5 1174.0488,-200.5 955,-200.5 955,-200.5 949,-200.5 943,-194.5 943,-188.5 943,-188.5 943,-94.5 943,-94.5 943,-88.5 949,-82.5 955,-82.5"/>
<text text-anchor="middle" x="1064.5244" y="-185.3" font-family="Times,serif" font-size="14.00" fill="#000000">ActiveStorage::DirectUploadsController</text>
<polyline fill="none" stroke="#000000" points="943,-178.5 1186.0488,-178.5 "/>
<text text-anchor="start" x="951" y="-163.3" font-family="Times,serif" font-size="14.00" fill="#000000">create</text>
<polyline fill="none" stroke="#000000" points="943,-156.5 1186.0488,-156.5 "/>
<polyline fill="none" stroke="#000000" points="943,-132.5 1186.0488,-132.5 "/>
<text text-anchor="start" x="951" y="-117.3" font-family="Times,serif" font-size="14.00" fill="#000000">_layout</text>
<text text-anchor="start" x="951" y="-103.3" font-family="Times,serif" font-size="14.00" fill="#000000">blob_args</text>
<text text-anchor="start" x="951" y="-89.3" font-family="Times,serif" font-size="14.00" fill="#000000">direct_upload_json</text>
</g>
<!-- ActiveStorage::BaseController -->
<g id="node6" class="node">
<title>ActiveStorage::BaseController</title>
<path fill="none" stroke="#000000" d="M1037,-656.5C1037,-656.5 1201.6211,-656.5 1201.6211,-656.5 1207.6211,-656.5 1213.6211,-662.5 1213.6211,-668.5 1213.6211,-668.5 1213.6211,-736.5 1213.6211,-736.5 1213.6211,-742.5 1207.6211,-748.5 1201.6211,-748.5 1201.6211,-748.5 1037,-748.5 1037,-748.5 1031,-748.5 1025,-742.5 1025,-736.5 1025,-736.5 1025,-668.5 1025,-668.5 1025,-662.5 1031,-656.5 1037,-656.5"/>
<text text-anchor="middle" x="1119.3105" y="-733.3" font-family="Times,serif" font-size="14.00" fill="#000000">ActiveStorage::BaseController</text>
<polyline fill="none" stroke="#000000" points="1025,-726.5 1213.6211,-726.5 "/>
<polyline fill="none" stroke="#000000" points="1025,-702.5 1213.6211,-702.5 "/>
<polyline fill="none" stroke="#000000" points="1025,-678.5 1213.6211,-678.5 "/>
<text text-anchor="start" x="1033" y="-663.3" font-family="Times,serif" font-size="14.00" fill="#000000">_layout</text>
</g>
<!-- ActiveStorage::BlobsController -->
<g id="node7" class="node">
<title>ActiveStorage::BlobsController</title>
<path fill="none" stroke="#000000" d="M627,-.5C627,-.5 797.083,-.5 797.083,-.5 803.083,-.5 809.083,-6.5 809.083,-12.5 809.083,-12.5 809.083,-78.5 809.083,-78.5 809.083,-84.5 803.083,-90.5 797.083,-90.5 797.083,-90.5 627,-90.5 627,-90.5 621,-90.5 615,-84.5 615,-78.5 615,-78.5 615,-12.5 615,-12.5 615,-6.5 621,-.5 627,-.5"/>
<text text-anchor="middle" x="712.0415" y="-75.3" font-family="Times,serif" font-size="14.00" fill="#000000">ActiveStorage::BlobsController</text>
<polyline fill="none" stroke="#000000" points="615,-68.5 809.083,-68.5 "/>
<text text-anchor="start" x="623" y="-53.3" font-family="Times,serif" font-size="14.00" fill="#000000">show</text>
<polyline fill="none" stroke="#000000" points="615,-46.5 809.083,-46.5 "/>
<polyline fill="none" stroke="#000000" points="615,-22.5 809.083,-22.5 "/>
<text text-anchor="start" x="623" y="-7.3" font-family="Times,serif" font-size="14.00" fill="#000000">_layout</text>
</g>
<!-- ActiveStorage::RepresentationsController -->
<g id="node8" class="node">
<title>ActiveStorage::RepresentationsController</title>
<path fill="none" stroke="#000000" d="M955,-287.5C955,-287.5 1181.8281,-287.5 1181.8281,-287.5 1187.8281,-287.5 1193.8281,-293.5 1193.8281,-299.5 1193.8281,-299.5 1193.8281,-365.5 1193.8281,-365.5 1193.8281,-371.5 1187.8281,-377.5 1181.8281,-377.5 1181.8281,-377.5 955,-377.5 955,-377.5 949,-377.5 943,-371.5 943,-365.5 943,-365.5 943,-299.5 943,-299.5 943,-293.5 949,-287.5 955,-287.5"/>
<text text-anchor="middle" x="1068.4141" y="-362.3" font-family="Times,serif" font-size="14.00" fill="#000000">ActiveStorage::RepresentationsController</text>
<polyline fill="none" stroke="#000000" points="943,-355.5 1193.8281,-355.5 "/>
<text text-anchor="start" x="951" y="-340.3" font-family="Times,serif" font-size="14.00" fill="#000000">show</text>
<polyline fill="none" stroke="#000000" points="943,-333.5 1193.8281,-333.5 "/>
<polyline fill="none" stroke="#000000" points="943,-309.5 1193.8281,-309.5 "/>
<text text-anchor="start" x="951" y="-294.3" font-family="Times,serif" font-size="14.00" fill="#000000">_layout</text>
</g>
<!-- ActiveStorage::DiskController -->
<g id="node9" class="node">
<title>ActiveStorage::DiskController</title>
<path fill="none" stroke="#000000" d="M422,-943.5C422,-943.5 585.8555,-943.5 585.8555,-943.5 591.8555,-943.5 597.8555,-949.5 597.8555,-955.5 597.8555,-955.5 597.8555,-1091.5 597.8555,-1091.5 597.8555,-1097.5 591.8555,-1103.5 585.8555,-1103.5 585.8555,-1103.5 422,-1103.5 422,-1103.5 416,-1103.5 410,-1097.5 410,-1091.5 410,-1091.5 410,-955.5 410,-955.5 410,-949.5 416,-943.5 422,-943.5"/>
<text text-anchor="middle" x="503.9277" y="-1088.3" font-family="Times,serif" font-size="14.00" fill="#000000">ActiveStorage::DiskController</text>
<polyline fill="none" stroke="#000000" points="410,-1081.5 597.8555,-1081.5 "/>
<text text-anchor="start" x="418" y="-1066.3" font-family="Times,serif" font-size="14.00" fill="#000000">show</text>
<text text-anchor="start" x="418" y="-1052.3" font-family="Times,serif" font-size="14.00" fill="#000000">update</text>
<polyline fill="none" stroke="#000000" points="410,-1045.5 597.8555,-1045.5 "/>
<polyline fill="none" stroke="#000000" points="410,-1021.5 597.8555,-1021.5 "/>
<text text-anchor="start" x="418" y="-1006.3" font-family="Times,serif" font-size="14.00" fill="#000000">_layout</text>
<text text-anchor="start" x="418" y="-992.3" font-family="Times,serif" font-size="14.00" fill="#000000">acceptable_content?</text>
<text text-anchor="start" x="418" y="-978.3" font-family="Times,serif" font-size="14.00" fill="#000000">decode_verified_key</text>
<text text-anchor="start" x="418" y="-964.3" font-family="Times,serif" font-size="14.00" fill="#000000">decode_verified_token</text>
<text text-anchor="start" x="418" y="-950.3" font-family="Times,serif" font-size="14.00" fill="#000000">disk_service</text>
</g>
<!-- Devise::OmniauthCallbacksController -->
<g id="node10" class="node">
<title>Devise::OmniauthCallbacksController</title>
<path fill="none" stroke="#000000" d="M392.9494,-732.8836C392.9494,-732.8836 600.3498,-732.8836 600.3498,-732.8836 606.3498,-732.8836 612.3498,-738.8836 612.3498,-744.8836 612.3498,-744.8836 612.3498,-864.8836 612.3498,-864.8836 612.3498,-870.8836 606.3498,-876.8836 600.3498,-876.8836 600.3498,-876.8836 392.9494,-876.8836 392.9494,-876.8836 386.9494,-876.8836 380.9494,-870.8836 380.9494,-864.8836 380.9494,-864.8836 380.9494,-744.8836 380.9494,-744.8836 380.9494,-738.8836 386.9494,-732.8836 392.9494,-732.8836"/>
<text text-anchor="middle" x="496.6496" y="-861.6836" font-family="Times,serif" font-size="14.00" fill="#000000">Devise::OmniauthCallbacksController</text>
<polyline fill="none" stroke="#000000" points="380.9494,-854.8836 612.3498,-854.8836 "/>
<text text-anchor="start" x="388.9494" y="-839.6836" font-family="Times,serif" font-size="14.00" fill="#000000">failure</text>
<text text-anchor="start" x="388.9494" y="-825.6836" font-family="Times,serif" font-size="14.00" fill="#000000">passthru</text>
<polyline fill="none" stroke="#000000" points="380.9494,-818.8836 612.3498,-818.8836 "/>
<text text-anchor="start" x="388.9494" y="-803.6836" font-family="Times,serif" font-size="14.00" fill="#000000">after_omniauth_failure_path_for</text>
<text text-anchor="start" x="388.9494" y="-789.6836" font-family="Times,serif" font-size="14.00" fill="#000000">failed_strategy</text>
<text text-anchor="start" x="388.9494" y="-775.6836" font-family="Times,serif" font-size="14.00" fill="#000000">failure_message</text>
<text text-anchor="start" x="388.9494" y="-761.6836" font-family="Times,serif" font-size="14.00" fill="#000000">translation_scope</text>
<polyline fill="none" stroke="#000000" points="380.9494,-754.8836 612.3498,-754.8836 "/>
<text text-anchor="start" x="388.9494" y="-739.6836" font-family="Times,serif" font-size="14.00" fill="#000000">_layout</text>
</g>
<!-- Devise::PasswordsController -->
<g id="node11" class="node">
<title>Devise::PasswordsController</title>
<path fill="none" stroke="#000000" d="M663.2983,-715.9823C663.2983,-715.9823 951.561,-715.9823 951.561,-715.9823 957.561,-715.9823 963.561,-721.9823 963.561,-727.9823 963.561,-727.9823 963.561,-889.9823 963.561,-889.9823 963.561,-895.9823 957.561,-901.9823 951.561,-901.9823 951.561,-901.9823 663.2983,-901.9823 663.2983,-901.9823 657.2983,-901.9823 651.2983,-895.9823 651.2983,-889.9823 651.2983,-889.9823 651.2983,-727.9823 651.2983,-727.9823 651.2983,-721.9823 657.2983,-715.9823 663.2983,-715.9823"/>
<text text-anchor="middle" x="807.4296" y="-886.7823" font-family="Times,serif" font-size="14.00" fill="#000000">Devise::PasswordsController</text>
<polyline fill="none" stroke="#000000" points="651.2983,-879.9823 963.561,-879.9823 "/>
<text text-anchor="start" x="659.2983" y="-864.7823" font-family="Times,serif" font-size="14.00" fill="#000000">create</text>
<text text-anchor="start" x="659.2983" y="-850.7823" font-family="Times,serif" font-size="14.00" fill="#000000">edit</text>
<text text-anchor="start" x="659.2983" y="-836.7823" font-family="Times,serif" font-size="14.00" fill="#000000">new</text>
<text text-anchor="start" x="659.2983" y="-822.7823" font-family="Times,serif" font-size="14.00" fill="#000000">update</text>
<polyline fill="none" stroke="#000000" points="651.2983,-815.9823 963.561,-815.9823 "/>
<text text-anchor="start" x="659.2983" y="-800.7823" font-family="Times,serif" font-size="14.00" fill="#000000">after_resetting_password_path_for</text>
<text text-anchor="start" x="659.2983" y="-786.7823" font-family="Times,serif" font-size="14.00" fill="#000000">after_sending_reset_password_instructions_path_for</text>
<text text-anchor="start" x="659.2983" y="-772.7823" font-family="Times,serif" font-size="14.00" fill="#000000">assert_reset_token_passed</text>
<text text-anchor="start" x="659.2983" y="-758.7823" font-family="Times,serif" font-size="14.00" fill="#000000">translation_scope</text>
<text text-anchor="start" x="659.2983" y="-744.7823" font-family="Times,serif" font-size="14.00" fill="#000000">unlockable?</text>
<polyline fill="none" stroke="#000000" points="651.2983,-737.9823 963.561,-737.9823 "/>
<text text-anchor="start" x="659.2983" y="-722.7823" font-family="Times,serif" font-size="14.00" fill="#000000">_layout</text>
</g>
<!-- Devise::SessionsController -->
<g id="node12" class="node">
<title>Devise::SessionsController</title>
<path fill="none" stroke="#000000" d="M104.3157,-706.4596C104.3157,-706.4596 248.7503,-706.4596 248.7503,-706.4596 254.7503,-706.4596 260.7503,-712.4596 260.7503,-718.4596 260.7503,-718.4596 260.7503,-894.4596 260.7503,-894.4596 260.7503,-900.4596 254.7503,-906.4596 248.7503,-906.4596 248.7503,-906.4596 104.3157,-906.4596 104.3157,-906.4596 98.3157,-906.4596 92.3157,-900.4596 92.3157,-894.4596 92.3157,-894.4596 92.3157,-718.4596 92.3157,-718.4596 92.3157,-712.4596 98.3157,-706.4596 104.3157,-706.4596"/>
<text text-anchor="middle" x="176.533" y="-891.2596" font-family="Times,serif" font-size="14.00" fill="#000000">Devise::SessionsController</text>
<polyline fill="none" stroke="#000000" points="92.3157,-884.4596 260.7503,-884.4596 "/>
<text text-anchor="start" x="100.3157" y="-869.2596" font-family="Times,serif" font-size="14.00" fill="#000000">create</text>
<text text-anchor="start" x="100.3157" y="-855.2596" font-family="Times,serif" font-size="14.00" fill="#000000">destroy</text>
<text text-anchor="start" x="100.3157" y="-841.2596" font-family="Times,serif" font-size="14.00" fill="#000000">new</text>
<polyline fill="none" stroke="#000000" points="92.3157,-834.4596 260.7503,-834.4596 "/>
<text text-anchor="start" x="100.3157" y="-819.2596" font-family="Times,serif" font-size="14.00" fill="#000000">auth_options</text>
<text text-anchor="start" x="100.3157" y="-805.2596" font-family="Times,serif" font-size="14.00" fill="#000000">serialize_options</text>
<text text-anchor="start" x="100.3157" y="-791.2596" font-family="Times,serif" font-size="14.00" fill="#000000">sign_in_params</text>
<text text-anchor="start" x="100.3157" y="-777.2596" font-family="Times,serif" font-size="14.00" fill="#000000">translation_scope</text>
<polyline fill="none" stroke="#000000" points="92.3157,-770.4596 260.7503,-770.4596 "/>
<text text-anchor="start" x="100.3157" y="-755.2596" font-family="Times,serif" font-size="14.00" fill="#000000">_layout</text>
<text text-anchor="start" x="100.3157" y="-741.2596" font-family="Times,serif" font-size="14.00" fill="#000000">all_signed_out?</text>
<text text-anchor="start" x="100.3157" y="-727.2596" font-family="Times,serif" font-size="14.00" fill="#000000">respond_to_on_destroy</text>
<text text-anchor="start" x="100.3157" y="-713.2596" font-family="Times,serif" font-size="14.00" fill="#000000">verify_signed_out_user</text>
</g>
<!-- Devise::UnlocksController -->
<g id="node13" class="node">
<title>Devise::UnlocksController</title>
<path fill="none" stroke="#000000" d="M12,-444.0751C12,-444.0751 252.0557,-444.0751 252.0557,-444.0751 258.0557,-444.0751 264.0557,-450.0751 264.0557,-456.0751 264.0557,-456.0751 264.0557,-576.0751 264.0557,-576.0751 264.0557,-582.0751 258.0557,-588.0751 252.0557,-588.0751 252.0557,-588.0751 12,-588.0751 12,-588.0751 6,-588.0751 0,-582.0751 0,-576.0751 0,-576.0751 0,-456.0751 0,-456.0751 0,-450.0751 6,-444.0751 12,-444.0751"/>
<text text-anchor="middle" x="132.0278" y="-572.8751" font-family="Times,serif" font-size="14.00" fill="#000000">Devise::UnlocksController</text>
<polyline fill="none" stroke="#000000" points="0,-566.0751 264.0557,-566.0751 "/>
<text text-anchor="start" x="8" y="-550.8751" font-family="Times,serif" font-size="14.00" fill="#000000">create</text>
<text text-anchor="start" x="8" y="-536.8751" font-family="Times,serif" font-size="14.00" fill="#000000">new</text>
<text text-anchor="start" x="8" y="-522.8751" font-family="Times,serif" font-size="14.00" fill="#000000">show</text>
<polyline fill="none" stroke="#000000" points="0,-516.0751 264.0557,-516.0751 "/>
<text text-anchor="start" x="8" y="-500.8751" font-family="Times,serif" font-size="14.00" fill="#000000">after_sending_unlock_instructions_path_for</text>
<text text-anchor="start" x="8" y="-486.8751" font-family="Times,serif" font-size="14.00" fill="#000000">after_unlock_path_for</text>
<text text-anchor="start" x="8" y="-472.8751" font-family="Times,serif" font-size="14.00" fill="#000000">translation_scope</text>
<polyline fill="none" stroke="#000000" points="0,-466.0751 264.0557,-466.0751 "/>
<text text-anchor="start" x="8" y="-450.8751" font-family="Times,serif" font-size="14.00" fill="#000000">_layout</text>
</g>
<!-- Devise::ConfirmationsController -->
<g id="node14" class="node">
<title>Devise::ConfirmationsController</title>
<path fill="none" stroke="#000000" d="M712.6302,-456.5595C712.6302,-456.5595 997.0032,-456.5595 997.0032,-456.5595 1003.0032,-456.5595 1009.0032,-462.5595 1009.0032,-468.5595 1009.0032,-468.5595 1009.0032,-588.5595 1009.0032,-588.5595 1009.0032,-594.5595 1003.0032,-600.5595 997.0032,-600.5595 997.0032,-600.5595 712.6302,-600.5595 712.6302,-600.5595 706.6302,-600.5595 700.6302,-594.5595 700.6302,-588.5595 700.6302,-588.5595 700.6302,-468.5595 700.6302,-468.5595 700.6302,-462.5595 706.6302,-456.5595 712.6302,-456.5595"/>
<text text-anchor="middle" x="854.8167" y="-585.3595" font-family="Times,serif" font-size="14.00" fill="#000000">Devise::ConfirmationsController</text>
<polyline fill="none" stroke="#000000" points="700.6302,-578.5595 1009.0032,-578.5595 "/>
<text text-anchor="start" x="708.6302" y="-563.3595" font-family="Times,serif" font-size="14.00" fill="#000000">create</text>
<text text-anchor="start" x="708.6302" y="-549.3595" font-family="Times,serif" font-size="14.00" fill="#000000">new</text>
<text text-anchor="start" x="708.6302" y="-535.3595" font-family="Times,serif" font-size="14.00" fill="#000000">show</text>
<polyline fill="none" stroke="#000000" points="700.6302,-528.5595 1009.0032,-528.5595 "/>
<text text-anchor="start" x="708.6302" y="-513.3595" font-family="Times,serif" font-size="14.00" fill="#000000">after_confirmation_path_for</text>
<text text-anchor="start" x="708.6302" y="-499.3595" font-family="Times,serif" font-size="14.00" fill="#000000">after_resending_confirmation_instructions_path_for</text>
<text text-anchor="start" x="708.6302" y="-485.3595" font-family="Times,serif" font-size="14.00" fill="#000000">translation_scope</text>
<polyline fill="none" stroke="#000000" points="700.6302,-478.5595 1009.0032,-478.5595 "/>
<text text-anchor="start" x="708.6302" y="-463.3595" font-family="Times,serif" font-size="14.00" fill="#000000">_layout</text>
</g>
<!-- Devise::RegistrationsController -->
<g id="node15" class="node">
<title>Devise::RegistrationsController</title>
<path fill="none" stroke="#000000" d="M88.2512,-82.5C88.2512,-82.5 262.969,-82.5 262.969,-82.5 268.969,-82.5 274.969,-88.5 274.969,-94.5 274.969,-94.5 274.969,-368.5 274.969,-368.5 274.969,-374.5 268.969,-380.5 262.969,-380.5 262.969,-380.5 88.2512,-380.5 88.2512,-380.5 82.2512,-380.5 76.2512,-374.5 76.2512,-368.5 76.2512,-368.5 76.2512,-94.5 76.2512,-94.5 76.2512,-88.5 82.2512,-82.5 88.2512,-82.5"/>
<text text-anchor="middle" x="175.6101" y="-365.3" font-family="Times,serif" font-size="14.00" fill="#000000">Devise::RegistrationsController</text>
<polyline fill="none" stroke="#000000" points="76.2512,-358.5 274.969,-358.5 "/>
<text text-anchor="start" x="84.2512" y="-343.3" font-family="Times,serif" font-size="14.00" fill="#000000">cancel</text>
<text text-anchor="start" x="84.2512" y="-329.3" font-family="Times,serif" font-size="14.00" fill="#000000">create</text>
<text text-anchor="start" x="84.2512" y="-315.3" font-family="Times,serif" font-size="14.00" fill="#000000">destroy</text>
<text text-anchor="start" x="84.2512" y="-301.3" font-family="Times,serif" font-size="14.00" fill="#000000">edit</text>
<text text-anchor="start" x="84.2512" y="-287.3" font-family="Times,serif" font-size="14.00" fill="#000000">new</text>
<text text-anchor="start" x="84.2512" y="-273.3" font-family="Times,serif" font-size="14.00" fill="#000000">update</text>
<polyline fill="none" stroke="#000000" points="76.2512,-266.5 274.969,-266.5 "/>
<text text-anchor="start" x="84.2512" y="-251.3" font-family="Times,serif" font-size="14.00" fill="#000000">update_resource</text>
<text text-anchor="start" x="84.2512" y="-237.3" font-family="Times,serif" font-size="14.00" fill="#000000">after_inactive_sign_up_path_for</text>
<text text-anchor="start" x="84.2512" y="-223.3" font-family="Times,serif" font-size="14.00" fill="#000000">after_sign_up_path_for</text>
<text text-anchor="start" x="84.2512" y="-209.3" font-family="Times,serif" font-size="14.00" fill="#000000">after_update_path_for</text>
<text text-anchor="start" x="84.2512" y="-195.3" font-family="Times,serif" font-size="14.00" fill="#000000">authenticate_scope!</text>
<text text-anchor="start" x="84.2512" y="-181.3" font-family="Times,serif" font-size="14.00" fill="#000000">build_resource</text>
<text text-anchor="start" x="84.2512" y="-167.3" font-family="Times,serif" font-size="14.00" fill="#000000">sign_up</text>
<text text-anchor="start" x="84.2512" y="-153.3" font-family="Times,serif" font-size="14.00" fill="#000000">sign_up_params</text>
<text text-anchor="start" x="84.2512" y="-139.3" font-family="Times,serif" font-size="14.00" fill="#000000">translation_scope</text>
<text text-anchor="start" x="84.2512" y="-125.3" font-family="Times,serif" font-size="14.00" fill="#000000">update_needs_confirmation?</text>
<text text-anchor="start" x="84.2512" y="-111.3" font-family="Times,serif" font-size="14.00" fill="#000000">account_update_params</text>
<polyline fill="none" stroke="#000000" points="76.2512,-104.5 274.969,-104.5 "/>
<text text-anchor="start" x="84.2512" y="-89.3" font-family="Times,serif" font-size="14.00" fill="#000000">_layout</text>
</g>
<!-- DeviseController&#45;&gt;Devise::OmniauthCallbacksController -->
<g id="edge3" class="edge">
<title>DeviseController&#45;&gt;Devise::OmniauthCallbacksController</title>
<path fill="none" stroke="#000000" d="M458.043,-711.7463C461.0294,-718.9511 463.9394,-725.9713 466.7354,-732.7164"/>
</g>
<!-- DeviseController&#45;&gt;Devise::PasswordsController -->
<g id="edge4" class="edge">
<title>DeviseController&#45;&gt;Devise::PasswordsController</title>
<path fill="none" stroke="#000000" d="M479.3473,-592.0756C534.8316,-628.7582 605.2571,-675.319 666.6229,-715.8901"/>
</g>
<!-- DeviseController&#45;&gt;Devise::SessionsController -->
<g id="edge5" class="edge">
<title>DeviseController&#45;&gt;Devise::SessionsController</title>
<path fill="none" stroke="#000000" d="M284.2076,-660.0342C272.7329,-675.6385 261.1728,-691.359 250.1035,-706.4119"/>
</g>
<!-- DeviseController&#45;&gt;Devise::UnlocksController -->
<g id="edge6" class="edge">
<title>DeviseController&#45;&gt;Devise::UnlocksController</title>
<path fill="none" stroke="#000000" d="M284.0788,-523.0321C277.5147,-522.7318 270.845,-522.4266 264.1471,-522.1201"/>
</g>
<!-- DeviseController&#45;&gt;Devise::ConfirmationsController -->
<g id="edge7" class="edge">
<title>DeviseController&#45;&gt;Devise::ConfirmationsController</title>
<path fill="none" stroke="#000000" d="M479.2185,-544.7324C498.128,-547.4211 517.8342,-549.7739 536.3956,-551.1866 601.1158,-556.1123 617.6679,-555.4193 682.4372,-551.1866 688.3105,-550.8027 694.2892,-550.3461 700.3232,-549.83"/>
</g>
<!-- DeviseController&#45;&gt;Devise::RegistrationsController -->
<g id="edge8" class="edge">
<title>DeviseController&#45;&gt;Devise::RegistrationsController</title>
<path fill="none" stroke="#000000" d="M284.0707,-387.3C281.054,-382.9667 278.0311,-378.6244 275.0123,-374.288"/>
</g>
</g>
</svg>
