<?xml version="1.0" encoding="UTF-8" standalone="no"?>
<!DOCTYPE svg PUBLIC "-//W3C//DTD SVG 1.1//EN"
 "http://www.w3.org/Graphics/SVG/1.1/DTD/svg11.dtd">
<!-- Generated by graphviz version 2.40.1 (20161225.0304)
 -->
<!-- Title: models_diagram Pages: 1 -->
<svg width="2679pt" height="225pt"
 viewBox="0.00 0.00 2678.56 225.00" xmlns="http://www.w3.org/2000/svg" xmlns:xlink="http://www.w3.org/1999/xlink">
<g id="graph0" class="graph" transform="scale(1 1) rotate(0) translate(4 221)">
<title>models_diagram</title>
<polygon fill="transparent" stroke="transparent" points="-4,4 -4,-221 2674.5569,-221 2674.5569,4 -4,4"/>
<!-- _diagram_info -->
<g id="node1" class="node">
<title>_diagram_info</title>
<text text-anchor="start" x="8" y="-202.6" font-family="Times,serif" font-size="13.00" fill="#000000">Models diagram</text>
<text text-anchor="start" x="8" y="-189.6" font-family="Times,serif" font-size="13.00" fill="#000000">Date: Jul 02 2018 &#45; 21:08</text>
<text text-anchor="start" x="8" y="-176.6" font-family="Times,serif" font-size="13.00" fill="#000000">Migration version: 20180702221650</text>
<text text-anchor="start" x="8" y="-163.6" font-family="Times,serif" font-size="13.00" fill="#000000">Generated by RailRoady 1.5.3</text>
<text text-anchor="start" x="8" y="-150.6" font-family="Times,serif" font-size="13.00" fill="#000000">http://railroady.prestonlee.com</text>
</g>
<!-- Note -->
<g id="node2" class="node">
<title>Note</title>
<ellipse fill="none" stroke="#000000" cx="301.6877" cy="-18" rx="27.0958" ry="18"/>
<text text-anchor="middle" x="301.6877" y="-13.8" font-family="Times,serif" font-size="14.00" fill="#000000">Note</text>
</g>
<!-- ApplicationRecord -->
<g id="node3" class="node">
<title>ApplicationRecord</title>
<ellipse fill="none" stroke="#000000" cx="302.6877" cy="-180.5" rx="77.2916" ry="18"/>
<text text-anchor="middle" x="302.6877" y="-176.3" font-family="Times,serif" font-size="14.00" fill="#000000">ApplicationRecord</text>
</g>
<!-- ApplicationRecord&#45;&gt;Note -->
<g id="edge1" class="edge">
<title>ApplicationRecord&#45;&gt;Note</title>
<path fill="none" stroke="#000000" d="M299.4627,-162.4619C296.0148,-140.9379 291.3408,-103.8572 293.6877,-72 294.579,-59.9018 296.579,-46.4018 298.3562,-35.9264"/>
</g>
<!-- User -->
<g id="node4" class="node">
<title>User</title>
<ellipse fill="none" stroke="#000000" cx="329.6877" cy="-90" rx="27" ry="18"/>
<text text-anchor="middle" x="329.6877" y="-85.8" font-family="Times,serif" font-size="14.00" fill="#000000">User</text>
</g>
<!-- ApplicationRecord&#45;&gt;User -->
<g id="edge3" class="edge">
<title>ApplicationRecord&#45;&gt;User</title>
<path fill="none" stroke="#000000" d="M308.1516,-162.186C312.8976,-146.278 319.727,-123.3869 324.4158,-107.6709"/>
</g>
<!-- User&#45;&gt;Note -->
<g id="edge2" class="edge">
<title>User&#45;&gt;Note</title>
<path fill="none" stroke="#f6c236" d="M319.996,-65.0784C317.5102,-58.6863 314.8236,-51.7778 312.2942,-45.2737"/>
<ellipse fill="none" stroke="#f6c236" cx="321.4599" cy="-68.8428" rx="4" ry="4"/>
<polygon fill="#f6c236" stroke="#f6c236" points="312.1249,-44.8383 312.6944,-33.8872 310.3127,-40.1783 308.5004,-35.5182 308.5004,-35.5182 308.5004,-35.5182 310.3127,-40.1783 304.3064,-37.1493 312.1249,-44.8383 312.1249,-44.8383"/>
</g>
<!-- ActiveStorage::Variant -->
<g id="node5" class="node">
<title>ActiveStorage::Variant</title>
<polygon fill="none" stroke="#000000" points="542.9781,-198.5 398.3974,-198.5 398.3974,-162.5 542.9781,-162.5 542.9781,-198.5"/>
<text text-anchor="middle" x="470.6877" y="-176.3" font-family="Times,serif" font-size="14.00" fill="#000000">ActiveStorage::Variant</text>
</g>
<!-- ActiveStorage::Blob -->
<g id="node6" class="node">
<title>ActiveStorage::Blob</title>
<ellipse fill="none" stroke="#000000" cx="643.6877" cy="-180.5" rx="82.6131" ry="18"/>
<text text-anchor="middle" x="643.6877" y="-176.3" font-family="Times,serif" font-size="14.00" fill="#000000">ActiveStorage::Blob</text>
</g>
<!-- ActiveStorage::Filename -->
<g id="node7" class="node">
<title>ActiveStorage::Filename</title>
<polygon fill="none" stroke="#000000" points="900.6467,-198.5 744.7288,-198.5 744.7288,-162.5 900.6467,-162.5 900.6467,-198.5"/>
<text text-anchor="middle" x="822.6877" y="-176.3" font-family="Times,serif" font-size="14.00" fill="#000000">ActiveStorage::Filename</text>
</g>
<!-- ActiveStorage::Variation -->
<g id="node8" class="node">
<title>ActiveStorage::Variation</title>
<polygon fill="none" stroke="#000000" points="1074.3675,-198.5 919.008,-198.5 919.008,-162.5 1074.3675,-162.5 1074.3675,-198.5"/>
<text text-anchor="middle" x="996.6877" y="-176.3" font-family="Times,serif" font-size="14.00" fill="#000000">ActiveStorage::Variation</text>
</g>
<!-- ActiveStorage::Attachment -->
<g id="node9" class="node">
<title>ActiveStorage::Attachment</title>
<ellipse fill="none" stroke="#000000" cx="1198.6877" cy="-180.5" rx="106.7251" ry="18"/>
<text text-anchor="middle" x="1198.6877" y="-176.3" font-family="Times,serif" font-size="14.00" fill="#000000">ActiveStorage::Attachment</text>
</g>
<!-- ActiveStorage::Current -->
<g id="node10" class="node">
<title>ActiveStorage::Current</title>
<polygon fill="none" stroke="#000000" points="1525.8161,-108 1379.5593,-108 1379.5593,-72 1525.8161,-72 1525.8161,-108"/>
<text text-anchor="middle" x="1452.6877" y="-85.8" font-family="Times,serif" font-size="14.00" fill="#000000">ActiveStorage::Current</text>
</g>
<!-- ActiveStorage::Filename::Parameters -->
<g id="node11" class="node">
<title>ActiveStorage::Filename::Parameters</title>
<polygon fill="none" stroke="#000000" points="1825.6194,-198.5 1599.7561,-198.5 1599.7561,-162.5 1825.6194,-162.5 1825.6194,-198.5"/>
<text text-anchor="middle" x="1712.6877" y="-176.3" font-family="Times,serif" font-size="14.00" fill="#000000">ActiveStorage::Filename::Parameters</text>
</g>
<!-- ActiveStorage::Blob::Identifiable -->
<g id="node12" class="node">
<title>ActiveStorage::Blob::Identifiable</title>
<polygon fill="none" stroke="#000000" stroke-dasharray="1,5" points="2045.816,-198.5 1843.5595,-198.5 1843.5595,-162.5 2045.816,-162.5 2045.816,-198.5"/>
<text text-anchor="middle" x="1944.6877" y="-176.3" font-family="Times,serif" font-size="14.00" fill="#000000">ActiveStorage::Blob::Identifiable</text>
</g>
<!-- ActiveStorage::Blob::Analyzable -->
<g id="node13" class="node">
<title>ActiveStorage::Blob::Analyzable</title>
<polygon fill="none" stroke="#000000" stroke-dasharray="1,5" points="2266.8024,-198.5 2064.5731,-198.5 2064.5731,-162.5 2266.8024,-162.5 2266.8024,-198.5"/>
<text text-anchor="middle" x="2165.6877" y="-176.3" font-family="Times,serif" font-size="14.00" fill="#000000">ActiveStorage::Blob::Analyzable</text>
</g>
<!-- ActiveStorage::Blob::Representable -->
<g id="node14" class="node">
<title>ActiveStorage::Blob::Representable</title>
<polygon fill="none" stroke="#000000" stroke-dasharray="1,5" points="2502.8538,-198.5 2284.5217,-198.5 2284.5217,-162.5 2502.8538,-162.5 2502.8538,-198.5"/>
<text text-anchor="middle" x="2393.6877" y="-176.3" font-family="Times,serif" font-size="14.00" fill="#000000">ActiveStorage::Blob::Representable</text>
</g>
<!-- ActiveStorage::Preview -->
<g id="node15" class="node">
<title>ActiveStorage::Preview</title>
<polygon fill="none" stroke="#000000" points="2670.4263,-198.5 2520.9492,-198.5 2520.9492,-162.5 2670.4263,-162.5 2670.4263,-198.5"/>
<text text-anchor="middle" x="2595.6877" y="-176.3" font-family="Times,serif" font-size="14.00" fill="#000000">ActiveStorage::Preview</text>
</g>
<!-- ActiveSupport::CurrentAttributes -->
<g id="node16" class="node">
<title>ActiveSupport::CurrentAttributes</title>
<ellipse fill="none" stroke="#000000" cx="1452.6877" cy="-180.5" rx="128.9682" ry="18"/>
<text text-anchor="middle" x="1452.6877" y="-176.3" font-family="Times,serif" font-size="14.00" fill="#000000">ActiveSupport::CurrentAttributes</text>
</g>
<!-- ActiveSupport::CurrentAttributes&#45;&gt;ActiveStorage::Current -->
<g id="edge4" class="edge">
<title>ActiveSupport::CurrentAttributes&#45;&gt;ActiveStorage::Current</title>
<path fill="none" stroke="#000000" d="M1452.6877,-162.186C1452.6877,-146.4846 1452.6877,-123.9803 1452.6877,-108.2868"/>
</g>
</g>
</svg>
