<?xml version="1.0" encoding="UTF-8" standalone="no"?>
<!DOCTYPE svg PUBLIC "-//W3C//DTD SVG 1.1//EN"
 "http://www.w3.org/Graphics/SVG/1.1/DTD/svg11.dtd">
<!-- Generated by graphviz version 2.40.1 (20161225.0304)
 -->
<!-- Title: models_diagram Pages: 1 -->
<svg width="2264pt" height="481pt"
 viewBox="0.00 0.00 2263.56 481.00" xmlns="http://www.w3.org/2000/svg" xmlns:xlink="http://www.w3.org/1999/xlink">
<g id="graph0" class="graph" transform="scale(1 1) rotate(0) translate(4 477)">
<title>models_diagram</title>
<polygon fill="transparent" stroke="transparent" points="-4,4 -4,-477 2259.5569,-477 2259.5569,4 -4,4"/>
<!-- _diagram_info -->
<g id="node1" class="node">
<title>_diagram_info</title>
<text text-anchor="start" x="8" y="-458.6" font-family="Times,serif" font-size="13.00" fill="#000000">Models diagram</text>
<text text-anchor="start" x="8" y="-445.6" font-family="Times,serif" font-size="13.00" fill="#000000">Date: Jul 02 2018 &#45; 21:08</text>
<text text-anchor="start" x="8" y="-432.6" font-family="Times,serif" font-size="13.00" fill="#000000">Migration version: 20180702221650</text>
<text text-anchor="start" x="8" y="-419.6" font-family="Times,serif" font-size="13.00" fill="#000000">Generated by RailRoady 1.5.3</text>
<text text-anchor="start" x="8" y="-406.6" font-family="Times,serif" font-size="13.00" fill="#000000">http://railroady.prestonlee.com</text>
</g>
<!-- Note -->
<g id="node2" class="node">
<title>Note</title>
<path fill="none" stroke="#000000" d="M248.1824,-.5C248.1824,-.5 357.1931,-.5 357.1931,-.5 363.1931,-.5 369.1931,-6.5 369.1931,-12.5 369.1931,-12.5 369.1931,-102.5 369.1931,-102.5 369.1931,-108.5 363.1931,-114.5 357.1931,-114.5 357.1931,-114.5 248.1824,-114.5 248.1824,-114.5 242.1824,-114.5 236.1824,-108.5 236.1824,-102.5 236.1824,-102.5 236.1824,-12.5 236.1824,-12.5 236.1824,-6.5 242.1824,-.5 248.1824,-.5"/>
<text text-anchor="middle" x="302.6877" y="-99.3" font-family="Times,serif" font-size="14.00" fill="#000000">Note</text>
<polyline fill="none" stroke="#000000" points="236.1824,-92.5 369.1931,-92.5 "/>
<text text-anchor="start" x="244.1824" y="-77.3" font-family="Times,serif" font-size="14.00" fill="#000000">id :integer</text>
<text text-anchor="start" x="244.1824" y="-63.3" font-family="Times,serif" font-size="14.00" fill="#000000">title :varchar</text>
<text text-anchor="start" x="244.1824" y="-49.3" font-family="Times,serif" font-size="14.00" fill="#000000">content :text</text>
<text text-anchor="start" x="244.1824" y="-35.3" font-family="Times,serif" font-size="14.00" fill="#000000">created_at :datetime</text>
<text text-anchor="start" x="244.1824" y="-21.3" font-family="Times,serif" font-size="14.00" fill="#000000">updated_at :datetime</text>
<text text-anchor="start" x="244.1824" y="-7.3" font-family="Times,serif" font-size="14.00" fill="#000000">user_id :integer</text>
</g>
<!-- ApplicationRecord -->
<g id="node3" class="node">
<title>ApplicationRecord</title>
<ellipse fill="none" stroke="#000000" cx="302.6877" cy="-436.5" rx="77.2916" ry="18"/>
<text text-anchor="middle" x="302.6877" y="-432.3" font-family="Times,serif" font-size="14.00" fill="#000000">ApplicationRecord</text>
</g>
<!-- ApplicationRecord&#45;&gt;Note -->
<g id="edge1" class="edge">
<title>ApplicationRecord&#45;&gt;Note</title>
<path fill="none" stroke="#000000" d="M287.416,-418.8481C276.4816,-404.9762 262.6754,-384.6134 256.6877,-364 230.281,-273.0909 235.2345,-243.2038 256.6877,-151 259.537,-138.754 264.2296,-126.2659 269.5547,-114.5697"/>
</g>
<!-- User -->
<g id="node4" class="node">
<title>User</title>
<path fill="none" stroke="#000000" d="M277.4099,-151.5C277.4099,-151.5 457.9656,-151.5 457.9656,-151.5 463.9656,-151.5 469.9656,-157.5 469.9656,-163.5 469.9656,-163.5 469.9656,-351.5 469.9656,-351.5 469.9656,-357.5 463.9656,-363.5 457.9656,-363.5 457.9656,-363.5 277.4099,-363.5 277.4099,-363.5 271.4099,-363.5 265.4099,-357.5 265.4099,-351.5 265.4099,-351.5 265.4099,-163.5 265.4099,-163.5 265.4099,-157.5 271.4099,-151.5 277.4099,-151.5"/>
<text text-anchor="middle" x="367.6877" y="-348.3" font-family="Times,serif" font-size="14.00" fill="#000000">User</text>
<polyline fill="none" stroke="#000000" points="265.4099,-341.5 469.9656,-341.5 "/>
<text text-anchor="start" x="273.4099" y="-326.3" font-family="Times,serif" font-size="14.00" fill="#000000">updated_at :datetime</text>
<text text-anchor="start" x="273.4099" y="-312.3" font-family="Times,serif" font-size="14.00" fill="#000000">email :varchar</text>
<text text-anchor="start" x="273.4099" y="-298.3" font-family="Times,serif" font-size="14.00" fill="#000000">encrypted_password :varchar</text>
<text text-anchor="start" x="273.4099" y="-284.3" font-family="Times,serif" font-size="14.00" fill="#000000">reset_password_token :varchar</text>
<text text-anchor="start" x="273.4099" y="-270.3" font-family="Times,serif" font-size="14.00" fill="#000000">reset_password_sent_at :datetime</text>
<text text-anchor="start" x="273.4099" y="-256.3" font-family="Times,serif" font-size="14.00" fill="#000000">remember_created_at :datetime</text>
<text text-anchor="start" x="273.4099" y="-242.3" font-family="Times,serif" font-size="14.00" fill="#000000">sign_in_count :integer</text>
<text text-anchor="start" x="273.4099" y="-228.3" font-family="Times,serif" font-size="14.00" fill="#000000">current_sign_in_at :datetime</text>
<text text-anchor="start" x="273.4099" y="-214.3" font-family="Times,serif" font-size="14.00" fill="#000000">last_sign_in_at :datetime</text>
<text text-anchor="start" x="273.4099" y="-200.3" font-family="Times,serif" font-size="14.00" fill="#000000">current_sign_in_ip :varchar</text>
<text text-anchor="start" x="273.4099" y="-186.3" font-family="Times,serif" font-size="14.00" fill="#000000">last_sign_in_ip :varchar</text>
<text text-anchor="start" x="273.4099" y="-172.3" font-family="Times,serif" font-size="14.00" fill="#000000">created_at :datetime</text>
<text text-anchor="start" x="273.4099" y="-158.3" font-family="Times,serif" font-size="14.00" fill="#000000">id :integer</text>
</g>
<!-- ApplicationRecord&#45;&gt;User -->
<g id="edge3" class="edge">
<title>ApplicationRecord&#45;&gt;User</title>
<path fill="none" stroke="#000000" d="M309.278,-418.3515C314.2161,-404.7527 321.4188,-384.9176 329.0917,-363.7876"/>
</g>
<!-- User&#45;&gt;Note -->
<g id="edge2" class="edge">
<title>User&#45;&gt;Note</title>
<path fill="none" stroke="#629eef" d="M330.6972,-143.6828C328.5667,-137.1277 326.4626,-130.6533 324.4222,-124.3753"/>
<ellipse fill="none" stroke="#629eef" cx="331.953" cy="-147.547" rx="4" ry="4"/>
<polygon fill="#629eef" stroke="#629eef" points="324.3648,-124.1984 325.5535,-113.2971 322.8193,-119.4432 321.2739,-114.688 321.2739,-114.688 321.2739,-114.688 322.8193,-119.4432 316.9942,-116.079 324.3648,-124.1984 324.3648,-124.1984"/>
</g>
<!-- ActiveStorage::Variant -->
<g id="node5" class="node">
<title>ActiveStorage::Variant</title>
<polygon fill="none" stroke="#000000" points="398.5427,-414.5 398.5427,-458.5 542.8328,-458.5 542.8328,-414.5 398.5427,-414.5"/>
<text text-anchor="middle" x="470.6877" y="-443.3" font-family="Times,serif" font-size="14.00" fill="#000000">ActiveStorage::Variant</text>
<polyline fill="none" stroke="#000000" points="398.5427,-436.5 542.8328,-436.5 "/>
<text text-anchor="middle" x="470.6877" y="-421.3" font-family="Times,serif" font-size="14.00" fill="#000000"> </text>
</g>
<!-- ActiveStorage::Filename -->
<g id="node6" class="node">
<title>ActiveStorage::Filename</title>
<polygon fill="none" stroke="#000000" points="560.7083,-414.5 560.7083,-458.5 716.6672,-458.5 716.6672,-414.5 560.7083,-414.5"/>
<text text-anchor="middle" x="638.6877" y="-443.3" font-family="Times,serif" font-size="14.00" fill="#000000">ActiveStorage::Filename</text>
<polyline fill="none" stroke="#000000" points="560.7083,-436.5 716.6672,-436.5 "/>
<text text-anchor="middle" x="638.6877" y="-421.3" font-family="Times,serif" font-size="14.00" fill="#000000"> </text>
</g>
<!-- ActiveStorage::Variation -->
<g id="node7" class="node">
<title>ActiveStorage::Variation</title>
<polygon fill="none" stroke="#000000" points="735.0979,-414.5 735.0979,-458.5 890.2776,-458.5 890.2776,-414.5 735.0979,-414.5"/>
<text text-anchor="middle" x="812.6877" y="-443.3" font-family="Times,serif" font-size="14.00" fill="#000000">ActiveStorage::Variation</text>
<polyline fill="none" stroke="#000000" points="735.0979,-436.5 890.2776,-436.5 "/>
<text text-anchor="middle" x="812.6877" y="-421.3" font-family="Times,serif" font-size="14.00" fill="#000000"> </text>
</g>
<!-- ActiveStorage::Current -->
<g id="node8" class="node">
<title>ActiveStorage::Current</title>
<polygon fill="none" stroke="#000000" points="964.3738,-235.5 964.3738,-279.5 1111.0017,-279.5 1111.0017,-235.5 964.3738,-235.5"/>
<text text-anchor="middle" x="1037.6877" y="-264.3" font-family="Times,serif" font-size="14.00" fill="#000000">ActiveStorage::Current</text>
<polyline fill="none" stroke="#000000" points="964.3738,-257.5 1111.0017,-257.5 "/>
<text text-anchor="middle" x="1037.6877" y="-242.3" font-family="Times,serif" font-size="14.00" fill="#000000"> </text>
</g>
<!-- ActiveStorage::Filename::Parameters -->
<g id="node9" class="node">
<title>ActiveStorage::Filename::Parameters</title>
<polygon fill="none" stroke="#000000" points="1184.7219,-414.5 1184.7219,-458.5 1410.6536,-458.5 1410.6536,-414.5 1184.7219,-414.5"/>
<text text-anchor="middle" x="1297.6877" y="-443.3" font-family="Times,serif" font-size="14.00" fill="#000000">ActiveStorage::Filename::Parameters</text>
<polyline fill="none" stroke="#000000" points="1184.7219,-436.5 1410.6536,-436.5 "/>
<text text-anchor="middle" x="1297.6877" y="-421.3" font-family="Times,serif" font-size="14.00" fill="#000000"> </text>
</g>
<!-- ActiveStorage::Blob::Identifiable -->
<g id="node10" class="node">
<title>ActiveStorage::Blob::Identifiable</title>
<polygon fill="none" stroke="#000000" stroke-dasharray="1,5" points="1630.816,-454.5 1428.5595,-454.5 1428.5595,-418.5 1630.816,-418.5 1630.816,-454.5"/>
<text text-anchor="middle" x="1529.6877" y="-432.3" font-family="Times,serif" font-size="14.00" fill="#000000">ActiveStorage::Blob::Identifiable</text>
</g>
<!-- ActiveStorage::Blob::Analyzable -->
<g id="node11" class="node">
<title>ActiveStorage::Blob::Analyzable</title>
<polygon fill="none" stroke="#000000" stroke-dasharray="1,5" points="1851.8024,-454.5 1649.5731,-454.5 1649.5731,-418.5 1851.8024,-418.5 1851.8024,-454.5"/>
<text text-anchor="middle" x="1750.6877" y="-432.3" font-family="Times,serif" font-size="14.00" fill="#000000">ActiveStorage::Blob::Analyzable</text>
</g>
<!-- ActiveStorage::Blob::Representable -->
<g id="node12" class="node">
<title>ActiveStorage::Blob::Representable</title>
<polygon fill="none" stroke="#000000" stroke-dasharray="1,5" points="2087.8538,-454.5 1869.5217,-454.5 1869.5217,-418.5 2087.8538,-418.5 2087.8538,-454.5"/>
<text text-anchor="middle" x="1978.6877" y="-432.3" font-family="Times,serif" font-size="14.00" fill="#000000">ActiveStorage::Blob::Representable</text>
</g>
<!-- ActiveStorage::Preview -->
<g id="node13" class="node">
<title>ActiveStorage::Preview</title>
<polygon fill="none" stroke="#000000" points="2105.8186,-414.5 2105.8186,-458.5 2255.5569,-458.5 2255.5569,-414.5 2105.8186,-414.5"/>
<text text-anchor="middle" x="2180.6877" y="-443.3" font-family="Times,serif" font-size="14.00" fill="#000000">ActiveStorage::Preview</text>
<polyline fill="none" stroke="#000000" points="2105.8186,-436.5 2255.5569,-436.5 "/>
<text text-anchor="middle" x="2180.6877" y="-421.3" font-family="Times,serif" font-size="14.00" fill="#000000"> </text>
</g>
<!-- ActiveSupport::CurrentAttributes -->
<g id="node14" class="node">
<title>ActiveSupport::CurrentAttributes</title>
<ellipse fill="none" stroke="#000000" cx="1037.6877" cy="-436.5" rx="128.9682" ry="18"/>
<text text-anchor="middle" x="1037.6877" y="-432.3" font-family="Times,serif" font-size="14.00" fill="#000000">ActiveSupport::CurrentAttributes</text>
</g>
<!-- ActiveSupport::CurrentAttributes&#45;&gt;ActiveStorage::Current -->
<g id="edge4" class="edge">
<title>ActiveSupport::CurrentAttributes&#45;&gt;ActiveStorage::Current</title>
<path fill="none" stroke="#000000" d="M1037.6877,-418.3515C1037.6877,-385.2878 1037.6877,-315.3574 1037.6877,-279.5863"/>
</g>
</g>
</svg>
